<svg width="227mm" height="342mm" version="1.1" viewBox="0 0 227 342" xmlns="http://www.w3.org/2000/svg"><clipPath id="a"><rect width="227" height="342"/></clipPath>
 <rect width="227" height="342" fill="#fff" stroke="#000"/>
 <g fill="#4be"><circle cx="28" cy="306" r="5"/><circle cx="94" cy="114" r="5"/></g>
 <g fill="none">
 <g clip-path="url(#a)" stroke="#09f"><ellipse transform="rotate(253)" cx="-136.5" cy="56.56" rx="22" ry="13.6"/><ellipse transform="rotate(253)" cx="-136.5" cy="56.56" rx="44" ry="27"/><ellipse transform="rotate(253)" cx="-136.5" cy="56.56" rx="65.7" ry="40.7"/><ellipse transform="rotate(253)" cx="-136.5" cy="56.56" rx="87.5" ry="54"/><ellipse transform="rotate(253)" cx="-136.5" cy="56.56" rx="109.4" ry="68"/><ellipse transform="rotate(253)" cx="-136.5" cy="56.56" rx="131" ry="81"/><ellipse transform="rotate(253)" cx="-136.5" cy="56.56" rx="153" ry="95"/><ellipse transform="rotate(253)" cx="-136.5" cy="56.56" rx="175" ry="108.5"/><ellipse transform="rotate(253)" cx="-136.5" cy="56.56" rx="197" ry="122"/><ellipse transform="rotate(253)" cx="-136.5" cy="56.56" rx="219" ry="135.6"/><ellipse transform="rotate(253)" cx="-136.5" cy="56.56" rx="241" ry="149"/><ellipse transform="rotate(253)" cx="-136.5" cy="56.56" rx="262.5" ry="162.7"/><ellipse transform="rotate(253)" cx="-136.5" cy="56.56" rx="284.5" ry="176"/><ellipse transform="rotate(253)" cx="-136.5" cy="56.56" rx="305.8" ry="189.4"/></g>
 <path d="m28 304 106-107-53-53l19-19-11-8 5-4" stroke="#0c4"/><path d="m28 307 106-106-40-87" stroke="#d02"/></g>
 <text x="20" y="326" font-family="Times" font-size="28px" font-style="italic" text-anchor="middle">x<tspan baseline-shift="sub" font-size="55%">0</tspan><tspan x="104" y="108">x</tspan></text></svg>