<svg width="626" height="629" viewBox="0 0 626 629" fill="none" xmlns="http://www.w3.org/2000/svg">
<rect width="626" height="629" fill="#F5F5F5"/>
<g filter="url(#filter0_d_0_1)">
<circle cx="55.6306" cy="288" r="32" fill="#8FEBFF"/>
<circle cx="55.6306" cy="288" r="29.5" stroke="#66B9D7" stroke-width="5"/>
</g>
<path d="M58.2215 275.727V299H55.4033V278.682H55.267L49.5852 282.455V279.591L55.4033 275.727H58.2215Z" fill="black"/>
<g filter="url(#filter1_d_0_1)">
<circle cx="275.631" cy="534" r="32" fill="#8FEBFF"/>
<circle cx="275.631" cy="534" r="29.5" stroke="#66B9D7" stroke-width="5"/>
</g>
<path d="M267.222 519.727V543H264.403V522.682H264.267L258.585 526.455V523.591L264.403 519.727H267.222ZM281.369 543.318C279.809 543.318 278.43 543.042 277.233 542.489C276.043 541.928 275.115 541.159 274.449 540.182C273.782 539.197 273.453 538.076 273.46 536.818C273.453 535.833 273.646 534.924 274.04 534.091C274.434 533.25 274.972 532.549 275.653 531.989C276.343 531.42 277.112 531.061 277.96 530.909V530.773C276.847 530.485 275.96 529.86 275.301 528.898C274.642 527.928 274.316 526.826 274.324 525.591C274.316 524.409 274.615 523.352 275.222 522.42C275.828 521.489 276.661 520.754 277.722 520.216C278.79 519.678 280.006 519.409 281.369 519.409C282.718 519.409 283.922 519.678 284.983 520.216C286.043 520.754 286.877 521.489 287.483 522.42C288.097 523.352 288.407 524.409 288.415 525.591C288.407 526.826 288.07 527.928 287.403 528.898C286.744 529.86 285.869 530.485 284.778 530.773V530.909C285.619 531.061 286.377 531.42 287.051 531.989C287.725 532.549 288.263 533.25 288.665 534.091C289.066 534.924 289.271 535.833 289.278 536.818C289.271 538.076 288.93 539.197 288.256 540.182C287.589 541.159 286.661 541.928 285.472 542.489C284.29 543.042 282.922 543.318 281.369 543.318ZM281.369 540.818C282.422 540.818 283.331 540.648 284.097 540.307C284.862 539.966 285.453 539.485 285.869 538.864C286.286 538.242 286.498 537.515 286.506 536.682C286.498 535.803 286.271 535.027 285.824 534.352C285.377 533.678 284.767 533.148 283.994 532.761C283.229 532.375 282.354 532.182 281.369 532.182C280.377 532.182 279.49 532.375 278.71 532.761C277.937 533.148 277.328 533.678 276.881 534.352C276.441 535.027 276.225 535.803 276.233 536.682C276.225 537.515 276.426 538.242 276.835 538.864C277.252 539.485 277.847 539.966 278.619 540.307C279.392 540.648 280.309 540.818 281.369 540.818ZM281.369 529.773C282.203 529.773 282.941 529.606 283.585 529.273C284.237 528.939 284.748 528.473 285.119 527.875C285.49 527.277 285.68 526.576 285.687 525.773C285.68 524.985 285.494 524.299 285.131 523.716C284.767 523.125 284.263 522.67 283.619 522.352C282.975 522.027 282.225 521.864 281.369 521.864C280.498 521.864 279.737 522.027 279.085 522.352C278.434 522.67 277.93 523.125 277.574 523.716C277.218 524.299 277.043 524.985 277.051 525.773C277.043 526.576 277.222 527.277 277.585 527.875C277.956 528.473 278.468 528.939 279.119 529.273C279.771 529.606 280.521 529.773 281.369 529.773Z" fill="black"/>
<g filter="url(#filter2_d_0_1)">
<circle cx="577.631" cy="121" r="32" fill="#8FEBFF"/>
<circle cx="577.631" cy="121" r="29.5" stroke="#66B9D7" stroke-width="5"/>
</g>
<path d="M573.222 109.727V133H570.403V112.682H570.267L564.585 116.455V113.591L570.403 109.727H573.222ZM588.097 109.727V133H585.278V112.682H585.142L579.46 116.455V113.591L585.278 109.727H588.097Z" fill="black"/>
<g filter="url(#filter3_d_0_1)">
<circle cx="523.631" cy="198" r="32" fill="#8FEBFF"/>
<circle cx="523.631" cy="198" r="29.5" stroke="#66B9D7" stroke-width="5"/>
</g>
<path d="M516.222 186.727V210H513.403V189.682H513.267L507.585 193.455V190.591L513.403 186.727H516.222ZM530.506 210.318C528.793 210.318 527.335 209.852 526.131 208.92C524.926 207.981 524.006 206.621 523.369 204.841C522.733 203.053 522.415 200.894 522.415 198.364C522.415 195.848 522.733 193.701 523.369 191.92C524.013 190.133 524.937 188.769 526.142 187.83C527.354 186.883 528.809 186.409 530.506 186.409C532.203 186.409 533.653 186.883 534.858 187.83C536.07 188.769 536.994 190.133 537.631 191.92C538.275 193.701 538.597 195.848 538.597 198.364C538.597 200.894 538.278 203.053 537.642 204.841C537.006 206.621 536.085 207.981 534.881 208.92C533.676 209.852 532.218 210.318 530.506 210.318ZM530.506 207.818C532.203 207.818 533.521 207 534.46 205.364C535.4 203.727 535.869 201.394 535.869 198.364C535.869 196.348 535.653 194.633 535.222 193.216C534.797 191.799 534.184 190.72 533.381 189.977C532.585 189.235 531.627 188.864 530.506 188.864C528.824 188.864 527.509 189.693 526.562 191.352C525.615 193.004 525.142 195.341 525.142 198.364C525.142 200.379 525.354 202.091 525.778 203.5C526.203 204.909 526.812 205.981 527.608 206.716C528.411 207.451 529.377 207.818 530.506 207.818Z" fill="black"/>
<g filter="url(#filter4_d_0_1)">
<circle cx="170.631" cy="52" r="32" fill="#8FEBFF"/>
<circle cx="170.631" cy="52" r="29.5" stroke="#66B9D7" stroke-width="5"/>
</g>
<path d="M170.767 64.3182C169.812 64.303 168.858 64.1212 167.903 63.7727C166.949 63.4242 166.078 62.8371 165.29 62.0114C164.502 61.178 163.869 60.053 163.392 58.6364C162.915 57.2121 162.676 55.4242 162.676 53.2727C162.676 51.2121 162.869 49.3864 163.256 47.7955C163.642 46.197 164.203 44.8523 164.937 43.7614C165.672 42.6629 166.559 41.8295 167.597 41.2614C168.642 40.6932 169.82 40.4091 171.131 40.4091C172.434 40.4091 173.593 40.6705 174.608 41.1932C175.631 41.7083 176.464 42.428 177.108 43.3523C177.752 44.2765 178.168 45.3409 178.358 46.5455H175.585C175.328 45.5 174.828 44.6326 174.085 43.9432C173.343 43.2538 172.358 42.9091 171.131 42.9091C169.328 42.9091 167.907 43.6932 166.869 45.2614C165.839 46.8295 165.32 49.0303 165.312 51.8636H165.494C165.918 51.2197 166.422 50.6705 167.006 50.2159C167.597 49.7538 168.248 49.3977 168.96 49.1477C169.672 48.8977 170.426 48.7727 171.222 48.7727C172.555 48.7727 173.775 49.1061 174.881 49.7727C175.987 50.4318 176.873 51.3447 177.54 52.5114C178.206 53.6705 178.54 55 178.54 56.5C178.54 57.9394 178.218 59.2576 177.574 60.4545C176.93 61.6439 176.025 62.5909 174.858 63.2955C173.699 63.9924 172.335 64.3333 170.767 64.3182ZM170.767 61.8182C171.722 61.8182 172.578 61.5795 173.335 61.1023C174.1 60.625 174.703 59.9848 175.142 59.1818C175.589 58.3788 175.812 57.4848 175.812 56.5C175.812 55.5379 175.597 54.6629 175.165 53.875C174.74 53.0795 174.153 52.447 173.403 51.9773C172.661 51.5076 171.812 51.2727 170.858 51.2727C170.138 51.2727 169.468 51.4167 168.847 51.7045C168.225 51.9848 167.68 52.3712 167.21 52.8636C166.748 53.3561 166.384 53.9205 166.119 54.5568C165.854 55.1856 165.722 55.8485 165.722 56.5455C165.722 57.4697 165.937 58.3333 166.369 59.1364C166.809 59.9394 167.407 60.5871 168.165 61.0795C168.93 61.572 169.797 61.8182 170.767 61.8182Z" fill="black"/>
<g filter="url(#filter5_d_0_1)">
<circle cx="37.6306" cy="32" r="32" fill="#8FEBFF"/>
<circle cx="37.6306" cy="32" r="29.5" stroke="#66B9D7" stroke-width="5"/>
</g>
<path d="M37.3124 44.3182C35.9791 44.3182 34.7783 44.053 33.7102 43.5227C32.642 42.9924 31.7859 42.2652 31.142 41.3409C30.498 40.4167 30.1458 39.3636 30.0852 38.1818H32.8124C32.9185 39.2348 33.3958 40.1061 34.2442 40.7955C35.1003 41.4773 36.123 41.8182 37.3124 41.8182C38.267 41.8182 39.1155 41.5947 39.8579 41.1477C40.6079 40.7008 41.195 40.0871 41.6192 39.3068C42.0511 38.5189 42.267 37.6288 42.267 36.6364C42.267 35.6212 42.0435 34.7159 41.5965 33.9205C41.1571 33.1174 40.5511 32.4848 39.7783 32.0227C39.0056 31.5606 38.123 31.3258 37.1306 31.3182C36.4185 31.3106 35.6874 31.4205 34.9374 31.6477C34.1874 31.8674 33.57 32.1515 33.0852 32.5L30.4488 32.1818L31.8579 20.7273H43.9488V23.2273H34.2215L33.4033 30.0909H33.5397C34.017 29.7121 34.6155 29.3977 35.3352 29.1477C36.0548 28.8977 36.8048 28.7727 37.5852 28.7727C39.0094 28.7727 40.2783 29.1136 41.392 29.7955C42.5132 30.4697 43.392 31.3939 44.0283 32.5682C44.6723 33.7424 44.9942 35.0833 44.9942 36.5909C44.9942 38.0758 44.6609 39.4015 43.9942 40.5682C43.3352 41.7273 42.4261 42.6439 41.267 43.3182C40.1079 43.9848 38.7897 44.3182 37.3124 44.3182Z" fill="black"/>
<g filter="url(#filter6_d_0_1)">
<circle cx="94.6306" cy="444" r="32" fill="#8FEBFF"/>
<circle cx="94.6306" cy="444" r="29.5" stroke="#66B9D7" stroke-width="5"/>
</g>
<path d="M85.4942 450.227V447.909L95.7215 431.727H97.4033V435.318H96.267L88.5397 447.545V447.727H102.312V450.227H85.4942ZM96.4488 455V449.523V448.443V431.727H99.1306V455H96.4488Z" fill="black"/>
<g filter="url(#filter7_d_0_1)">
<circle cx="452.631" cy="564" r="32" fill="#8FEBFF"/>
<circle cx="452.631" cy="564" r="29.5" stroke="#66B9D7" stroke-width="5"/>
</g>
<path d="M446.222 552.727V576H443.403V555.682H443.267L437.585 559.455V556.591L443.403 552.727H446.222ZM453.642 576L464.051 555.409V555.227H452.051V552.727H466.96V555.364L456.597 576H453.642Z" fill="black"/>
<g filter="url(#filter8_d_0_1)">
<circle cx="499.631" cy="482" r="32" fill="#8FEBFF"/>
<circle cx="499.631" cy="482" r="29.5" stroke="#66B9D7" stroke-width="5"/>
</g>
<path d="M492.222 470.727V494H489.403V473.682H489.267L483.585 477.455V474.591L489.403 470.727H492.222ZM506.642 494.318C505.687 494.303 504.733 494.121 503.778 493.773C502.824 493.424 501.953 492.837 501.165 492.011C500.377 491.178 499.744 490.053 499.267 488.636C498.79 487.212 498.551 485.424 498.551 483.273C498.551 481.212 498.744 479.386 499.131 477.795C499.517 476.197 500.078 474.852 500.812 473.761C501.547 472.663 502.434 471.83 503.472 471.261C504.517 470.693 505.695 470.409 507.006 470.409C508.309 470.409 509.468 470.67 510.483 471.193C511.506 471.708 512.339 472.428 512.983 473.352C513.627 474.277 514.043 475.341 514.233 476.545H511.46C511.203 475.5 510.703 474.633 509.96 473.943C509.218 473.254 508.233 472.909 507.006 472.909C505.203 472.909 503.782 473.693 502.744 475.261C501.714 476.83 501.195 479.03 501.187 481.864H501.369C501.793 481.22 502.297 480.67 502.881 480.216C503.472 479.754 504.123 479.398 504.835 479.148C505.547 478.898 506.301 478.773 507.097 478.773C508.43 478.773 509.65 479.106 510.756 479.773C511.862 480.432 512.748 481.345 513.415 482.511C514.081 483.67 514.415 485 514.415 486.5C514.415 487.939 514.093 489.258 513.449 490.455C512.805 491.644 511.9 492.591 510.733 493.295C509.574 493.992 508.21 494.333 506.642 494.318ZM506.642 491.818C507.597 491.818 508.453 491.58 509.21 491.102C509.975 490.625 510.578 489.985 511.017 489.182C511.464 488.379 511.687 487.485 511.687 486.5C511.687 485.538 511.472 484.663 511.04 483.875C510.615 483.08 510.028 482.447 509.278 481.977C508.536 481.508 507.687 481.273 506.733 481.273C506.013 481.273 505.343 481.417 504.722 481.705C504.1 481.985 503.555 482.371 503.085 482.864C502.623 483.356 502.259 483.92 501.994 484.557C501.729 485.186 501.597 485.848 501.597 486.545C501.597 487.47 501.812 488.333 502.244 489.136C502.684 489.939 503.282 490.587 504.04 491.08C504.805 491.572 505.672 491.818 506.642 491.818Z" fill="black"/>
<g filter="url(#filter9_d_0_1)">
<circle cx="513.631" cy="388" r="32" fill="#8FEBFF"/>
<circle cx="513.631" cy="388" r="29.5" stroke="#66B9D7" stroke-width="5"/>
</g>
<path d="M506.222 375.727V399H503.403V378.682H503.267L497.585 382.455V379.591L503.403 375.727H506.222ZM512.369 394.227V391.909L522.597 375.727H524.278V379.318H523.142L515.415 391.545V391.727H529.187V394.227H512.369ZM523.324 399V393.523V392.443V375.727H526.006V399H523.324Z" fill="black"/>
<g filter="url(#filter10_d_0_1)">
<circle cx="435.631" cy="388" r="32" fill="#8FEBFF"/>
<circle cx="435.631" cy="388" r="29.5" stroke="#66B9D7" stroke-width="5"/>
</g>
<path d="M428.222 375.727V399H425.403V378.682H425.267L419.585 382.455V379.591L425.403 375.727H428.222ZM442.778 399.318C441.278 399.318 439.941 399.061 438.767 398.545C437.6 398.03 436.672 397.314 435.983 396.398C435.301 395.473 434.93 394.402 434.869 393.182H437.733C437.793 393.932 438.051 394.58 438.506 395.125C438.96 395.663 439.555 396.08 440.29 396.375C441.025 396.67 441.839 396.818 442.733 396.818C443.733 396.818 444.619 396.644 445.392 396.295C446.165 395.947 446.771 395.462 447.21 394.841C447.65 394.22 447.869 393.5 447.869 392.682C447.869 391.826 447.657 391.072 447.233 390.42C446.809 389.761 446.187 389.246 445.369 388.875C444.551 388.504 443.551 388.318 442.369 388.318H440.506V385.818H442.369C443.293 385.818 444.104 385.652 444.801 385.318C445.506 384.985 446.055 384.515 446.449 383.909C446.85 383.303 447.051 382.591 447.051 381.773C447.051 380.985 446.877 380.299 446.528 379.716C446.18 379.133 445.687 378.678 445.051 378.352C444.422 378.027 443.68 377.864 442.824 377.864C442.021 377.864 441.263 378.011 440.551 378.307C439.847 378.595 439.271 379.015 438.824 379.568C438.377 380.114 438.134 380.773 438.097 381.545H435.369C435.415 380.326 435.782 379.258 436.472 378.341C437.161 377.417 438.062 376.697 439.176 376.182C440.297 375.667 441.528 375.409 442.869 375.409C444.309 375.409 445.543 375.701 446.574 376.284C447.604 376.86 448.396 377.621 448.949 378.568C449.502 379.515 449.778 380.538 449.778 381.636C449.778 382.947 449.434 384.064 448.744 384.989C448.062 385.913 447.134 386.553 445.96 386.909V387.091C447.43 387.333 448.578 387.958 449.403 388.966C450.229 389.966 450.642 391.205 450.642 392.682C450.642 393.947 450.297 395.083 449.608 396.091C448.926 397.091 447.994 397.879 446.812 398.455C445.631 399.03 444.286 399.318 442.778 399.318Z" fill="black"/>
<g filter="url(#filter11_d_0_1)">
<circle cx="428.631" cy="470" r="32" fill="#8FEBFF"/>
<circle cx="428.631" cy="470" r="29.5" stroke="#66B9D7" stroke-width="5"/>
</g>
<path d="M422.222 458.727V482H419.403V461.682H419.267L413.585 465.455V462.591L419.403 458.727H422.222ZM436.187 482.318C434.854 482.318 433.653 482.053 432.585 481.523C431.517 480.992 430.661 480.265 430.017 479.341C429.373 478.417 429.021 477.364 428.96 476.182H431.687C431.793 477.235 432.271 478.106 433.119 478.795C433.975 479.477 434.998 479.818 436.187 479.818C437.142 479.818 437.99 479.595 438.733 479.148C439.483 478.701 440.07 478.087 440.494 477.307C440.926 476.519 441.142 475.629 441.142 474.636C441.142 473.621 440.918 472.716 440.472 471.92C440.032 471.117 439.426 470.485 438.653 470.023C437.881 469.561 436.998 469.326 436.006 469.318C435.293 469.311 434.562 469.42 433.812 469.648C433.062 469.867 432.445 470.152 431.96 470.5L429.324 470.182L430.733 458.727H442.824V461.227H433.097L432.278 468.091H432.415C432.892 467.712 433.49 467.398 434.21 467.148C434.93 466.898 435.68 466.773 436.46 466.773C437.884 466.773 439.153 467.114 440.267 467.795C441.388 468.47 442.267 469.394 442.903 470.568C443.547 471.742 443.869 473.083 443.869 474.591C443.869 476.076 443.536 477.402 442.869 478.568C442.21 479.727 441.301 480.644 440.142 481.318C438.983 481.985 437.665 482.318 436.187 482.318Z" fill="black"/>
<g filter="url(#filter12_d_0_1)">
<circle cx="371.631" cy="179" r="32" fill="#8FEBFF"/>
<circle cx="371.631" cy="179" r="29.5" stroke="#66B9D7" stroke-width="5"/>
</g>
<path opacity="0.8" d="M371.494 192.318C369.934 192.318 368.555 192.042 367.358 191.489C366.168 190.928 365.24 190.159 364.574 189.182C363.907 188.197 363.578 187.076 363.585 185.818C363.578 184.833 363.771 183.924 364.165 183.091C364.559 182.25 365.097 181.549 365.778 180.989C366.468 180.42 367.237 180.061 368.085 179.909V179.773C366.972 179.485 366.085 178.86 365.426 177.898C364.767 176.928 364.441 175.826 364.449 174.591C364.441 173.409 364.74 172.352 365.347 171.42C365.953 170.489 366.786 169.754 367.847 169.216C368.915 168.678 370.131 168.409 371.494 168.409C372.843 168.409 374.047 168.678 375.108 169.216C376.168 169.754 377.002 170.489 377.608 171.42C378.222 172.352 378.532 173.409 378.54 174.591C378.532 175.826 378.195 176.928 377.528 177.898C376.869 178.86 375.994 179.485 374.903 179.773V179.909C375.744 180.061 376.502 180.42 377.176 180.989C377.85 181.549 378.388 182.25 378.79 183.091C379.191 183.924 379.396 184.833 379.403 185.818C379.396 187.076 379.055 188.197 378.381 189.182C377.714 190.159 376.786 190.928 375.597 191.489C374.415 192.042 373.047 192.318 371.494 192.318ZM371.494 189.818C372.547 189.818 373.456 189.648 374.222 189.307C374.987 188.966 375.578 188.485 375.994 187.864C376.411 187.242 376.623 186.515 376.631 185.682C376.623 184.803 376.396 184.027 375.949 183.352C375.502 182.678 374.892 182.148 374.119 181.761C373.354 181.375 372.479 181.182 371.494 181.182C370.502 181.182 369.615 181.375 368.835 181.761C368.062 182.148 367.453 182.678 367.006 183.352C366.566 184.027 366.35 184.803 366.358 185.682C366.35 186.515 366.551 187.242 366.96 187.864C367.377 188.485 367.972 188.966 368.744 189.307C369.517 189.648 370.434 189.818 371.494 189.818ZM371.494 178.773C372.328 178.773 373.066 178.606 373.71 178.273C374.362 177.939 374.873 177.473 375.244 176.875C375.615 176.277 375.805 175.576 375.812 174.773C375.805 173.985 375.619 173.299 375.256 172.716C374.892 172.125 374.388 171.67 373.744 171.352C373.1 171.027 372.35 170.864 371.494 170.864C370.623 170.864 369.862 171.027 369.21 171.352C368.559 171.67 368.055 172.125 367.699 172.716C367.343 173.299 367.168 173.985 367.176 174.773C367.168 175.576 367.347 176.277 367.71 176.875C368.081 177.473 368.593 177.939 369.244 178.273C369.896 178.606 370.646 178.773 371.494 178.773Z" fill="black"/>
<g filter="url(#filter13_d_0_1)">
<circle cx="379.631" cy="97" r="32" fill="#8FEBFF"/>
<circle cx="379.631" cy="97" r="29.5" stroke="#66B9D7" stroke-width="5"/>
</g>
<path d="M379.449 85.4091C380.403 85.4167 381.358 85.5985 382.312 85.9545C383.267 86.3106 384.138 86.9015 384.926 87.7273C385.714 88.5455 386.347 89.6629 386.824 91.0795C387.301 92.4962 387.54 94.2727 387.54 96.4091C387.54 98.4773 387.343 100.314 386.949 101.92C386.562 103.519 386.002 104.867 385.267 105.966C384.54 107.064 383.653 107.898 382.608 108.466C381.57 109.034 380.396 109.318 379.085 109.318C377.782 109.318 376.619 109.061 375.597 108.545C374.581 108.023 373.748 107.299 373.097 106.375C372.453 105.443 372.04 104.364 371.858 103.136H374.631C374.881 104.205 375.377 105.087 376.119 105.784C376.869 106.473 377.858 106.818 379.085 106.818C380.881 106.818 382.297 106.034 383.335 104.466C384.381 102.898 384.903 100.682 384.903 97.8182H384.722C384.297 98.4545 383.793 99.0038 383.21 99.4659C382.627 99.928 381.979 100.284 381.267 100.534C380.555 100.784 379.797 100.909 378.994 100.909C377.661 100.909 376.437 100.58 375.324 99.9205C374.218 99.2538 373.331 98.3409 372.665 97.1818C372.006 96.0152 371.676 94.6818 371.676 93.1818C371.676 91.7576 371.994 90.4545 372.631 89.2727C373.275 88.0833 374.176 87.1364 375.335 86.4318C376.502 85.7273 377.873 85.3864 379.449 85.4091ZM379.449 87.9091C378.494 87.9091 377.634 88.1477 376.869 88.625C376.112 89.0947 375.509 89.7311 375.062 90.5341C374.623 91.3295 374.403 92.2121 374.403 93.1818C374.403 94.1515 374.615 95.0341 375.04 95.8295C375.472 96.6174 376.059 97.2462 376.801 97.7159C377.551 98.178 378.403 98.4091 379.358 98.4091C380.078 98.4091 380.748 98.2689 381.369 97.9886C381.99 97.7008 382.532 97.3106 382.994 96.8182C383.464 96.3182 383.831 95.7538 384.097 95.125C384.362 94.4886 384.494 93.8258 384.494 93.1364C384.494 92.2273 384.275 91.375 383.835 90.5795C383.403 89.7841 382.805 89.1402 382.04 88.6477C381.282 88.1553 380.418 87.9091 379.449 87.9091Z" fill="black"/>
<g filter="url(#filter14_d_0_1)">
<circle cx="315.631" cy="299" r="32" fill="#8FEBFF"/>
<circle cx="315.631" cy="299" r="29.5" stroke="#66B9D7" stroke-width="5"/>
</g>
<path d="M308.222 286.727V310H305.403V289.682H305.267L299.585 293.455V290.591L305.403 286.727H308.222ZM314.915 310V307.955L322.597 299.545C323.498 298.561 324.24 297.705 324.824 296.977C325.407 296.242 325.839 295.553 326.119 294.909C326.407 294.258 326.551 293.576 326.551 292.864C326.551 292.045 326.354 291.337 325.96 290.739C325.574 290.14 325.043 289.678 324.369 289.352C323.695 289.027 322.937 288.864 322.097 288.864C321.203 288.864 320.422 289.049 319.756 289.42C319.097 289.784 318.585 290.295 318.222 290.955C317.865 291.614 317.687 292.386 317.687 293.273H315.006C315.006 291.909 315.32 290.712 315.949 289.682C316.578 288.652 317.434 287.848 318.517 287.273C319.608 286.697 320.831 286.409 322.187 286.409C323.551 286.409 324.759 286.697 325.812 287.273C326.865 287.848 327.691 288.625 328.29 289.602C328.888 290.58 329.187 291.667 329.187 292.864C329.187 293.72 329.032 294.557 328.722 295.375C328.418 296.186 327.888 297.091 327.131 298.091C326.381 299.083 325.339 300.295 324.006 301.727L318.778 307.318V307.5H329.597V310H314.915Z" fill="black"/>
<g filter="url(#filter15_d_0_1)">
<circle cx="281.631" cy="161" r="32" fill="#8FEBFF"/>
<circle cx="281.631" cy="161" r="29.5" stroke="#66B9D7" stroke-width="5"/>
</g>
<path d="M276.767 173L287.176 152.409V152.227H275.176V149.727H290.085V152.364L279.722 173H276.767Z" fill="black"/>
<g filter="url(#filter16_d_0_1)">
<circle cx="146.631" cy="331" r="32" fill="#8FEBFF"/>
<circle cx="146.631" cy="331" r="29.5" stroke="#66B9D7" stroke-width="5"/>
</g>
<path d="M139.04 342V339.955L146.722 331.545C147.623 330.561 148.365 329.705 148.949 328.977C149.532 328.242 149.964 327.553 150.244 326.909C150.532 326.258 150.676 325.576 150.676 324.864C150.676 324.045 150.479 323.337 150.085 322.739C149.699 322.14 149.168 321.678 148.494 321.352C147.82 321.027 147.062 320.864 146.222 320.864C145.328 320.864 144.547 321.049 143.881 321.42C143.222 321.784 142.71 322.295 142.347 322.955C141.99 323.614 141.812 324.386 141.812 325.273H139.131C139.131 323.909 139.445 322.712 140.074 321.682C140.703 320.652 141.559 319.848 142.642 319.273C143.733 318.697 144.956 318.409 146.312 318.409C147.676 318.409 148.884 318.697 149.937 319.273C150.99 319.848 151.816 320.625 152.415 321.602C153.013 322.58 153.312 323.667 153.312 324.864C153.312 325.72 153.157 326.557 152.847 327.375C152.543 328.186 152.013 329.091 151.256 330.091C150.506 331.083 149.464 332.295 148.131 333.727L142.903 339.318V339.5H153.722V342H139.04Z" fill="black"/>
<g filter="url(#filter17_d_0_1)">
<circle cx="146.631" cy="224" r="32" fill="#8FEBFF"/>
<circle cx="146.631" cy="224" r="29.5" stroke="#66B9D7" stroke-width="5"/>
</g>
<path d="M145.903 236.318C144.403 236.318 143.066 236.061 141.892 235.545C140.725 235.03 139.797 234.314 139.108 233.398C138.426 232.473 138.055 231.402 137.994 230.182H140.858C140.918 230.932 141.176 231.58 141.631 232.125C142.085 232.663 142.68 233.08 143.415 233.375C144.15 233.67 144.964 233.818 145.858 233.818C146.858 233.818 147.744 233.644 148.517 233.295C149.29 232.947 149.896 232.462 150.335 231.841C150.775 231.22 150.994 230.5 150.994 229.682C150.994 228.826 150.782 228.072 150.358 227.42C149.934 226.761 149.312 226.246 148.494 225.875C147.676 225.504 146.676 225.318 145.494 225.318H143.631V222.818H145.494C146.418 222.818 147.229 222.652 147.926 222.318C148.631 221.985 149.18 221.515 149.574 220.909C149.975 220.303 150.176 219.591 150.176 218.773C150.176 217.985 150.002 217.299 149.653 216.716C149.305 216.133 148.812 215.678 148.176 215.352C147.547 215.027 146.805 214.864 145.949 214.864C145.146 214.864 144.388 215.011 143.676 215.307C142.972 215.595 142.396 216.015 141.949 216.568C141.502 217.114 141.259 217.773 141.222 218.545H138.494C138.54 217.326 138.907 216.258 139.597 215.341C140.286 214.417 141.187 213.697 142.301 213.182C143.422 212.667 144.653 212.409 145.994 212.409C147.434 212.409 148.668 212.701 149.699 213.284C150.729 213.86 151.521 214.621 152.074 215.568C152.627 216.515 152.903 217.538 152.903 218.636C152.903 219.947 152.559 221.064 151.869 221.989C151.187 222.913 150.259 223.553 149.085 223.909V224.091C150.555 224.333 151.703 224.958 152.528 225.966C153.354 226.966 153.767 228.205 153.767 229.682C153.767 230.947 153.422 232.083 152.733 233.091C152.051 234.091 151.119 234.879 149.937 235.455C148.756 236.03 147.411 236.318 145.903 236.318Z" fill="black"/>
<path d="M62.6306 226C74.8341 226 86.0384 232.626 94.2615 243.648C102.485 254.671 107.631 269.992 107.631 287C107.631 304.008 102.485 319.329 94.2615 330.352C86.0384 341.374 74.8341 348 62.6306 348C50.4272 348 39.2228 341.374 30.9997 330.352C22.7765 319.329 17.6306 304.008 17.6306 287C17.6306 269.992 22.7765 254.671 30.9997 243.648C39.2228 232.626 50.4272 226 62.6306 226Z" stroke="#FF0000" stroke-width="4"/>
<path d="M119.131 167.5C175.367 167.5 221.131 216.424 221.131 277C221.131 337.576 175.367 386.5 119.131 386.5C62.8947 386.5 17.1306 337.576 17.1306 277C17.1306 216.424 62.8947 167.5 119.131 167.5Z" stroke="#FF0000" stroke-width="3"/>
<path d="M131.131 123.5C165.122 123.5 196.086 144.36 218.621 178.477C241.148 212.582 255.131 259.785 255.131 312C255.131 364.215 241.148 411.418 218.621 445.523C196.086 479.64 165.122 500.5 131.131 500.5C97.1388 500.5 66.1755 479.64 43.6404 445.523C21.113 411.418 7.13061 364.215 7.13061 312C7.13061 259.785 21.113 212.582 43.6404 178.477C66.1755 144.36 97.1388 123.5 131.131 123.5Z" stroke="#FF0000" stroke-width="3"/>
<path d="M152.354 10.4843C201.425 5.59121 249.532 35.2754 287.613 87.8315C325.669 140.353 353.507 215.478 362.011 300.757C370.515 386.036 358.06 465.178 331.125 524.18C304.172 583.221 262.874 621.821 213.803 626.714C164.732 631.608 116.624 601.923 78.5427 549.367C40.4866 496.846 12.6485 421.722 4.14454 336.443C-4.35936 251.163 8.09557 172.021 35.0308 113.019C61.9838 53.9771 103.282 15.3776 152.354 10.4843Z" stroke="#FF0000" stroke-width="3"/>
<path d="M371.631 142.5C392.842 142.5 410.131 160.356 410.131 182.5C410.131 204.644 392.842 222.5 371.631 222.5C350.419 222.5 333.131 204.644 333.131 182.5C333.131 160.356 350.419 142.5 371.631 142.5Z" stroke="#00AA1F" stroke-width="3"/>
<path d="M334.631 45.5C395.822 45.5 445.131 89.7553 445.131 144C445.131 198.245 395.822 242.5 334.631 242.5C273.439 242.5 224.131 198.245 224.131 144C224.131 89.7553 273.439 45.5 334.631 45.5Z" stroke="#00B506" stroke-width="3"/>
<path d="M420.131 21.5C476.651 21.5 527.748 35.3273 564.666 57.6035C601.612 79.897 624.131 110.488 624.131 144C624.131 177.512 601.612 208.103 564.666 230.396C527.748 252.673 476.651 266.5 420.131 266.5C363.61 266.5 312.513 252.673 275.595 230.396C238.649 208.103 216.131 177.512 216.131 144C216.131 110.488 238.649 79.897 275.595 57.6035C312.513 35.3273 363.61 21.5 420.131 21.5Z" stroke="#00B106" stroke-width="3"/>
<path d="M436.631 351.5C457.762 351.5 475.131 370.39 475.131 394C475.131 417.61 457.762 436.5 436.631 436.5C415.499 436.5 398.131 417.61 398.131 394C398.131 370.39 415.499 351.5 436.631 351.5Z" stroke="#2600FF" stroke-width="3"/>
<path d="M467.631 332.5C515.222 332.5 554.131 376.63 554.131 431.5C554.131 486.37 515.222 530.5 467.631 530.5C420.039 530.5 381.131 486.37 381.131 431.5C381.131 376.63 420.039 332.5 467.631 332.5Z" stroke="#2F00FF" stroke-width="3"/>
<path d="M395.131 245.5C512.995 245.5 608.131 327.195 608.131 427.5C608.131 527.805 512.995 609.5 395.131 609.5C277.266 609.5 182.131 527.805 182.131 427.5C182.131 327.195 277.266 245.5 395.131 245.5Z" stroke="#4000FF" stroke-width="3"/>
<defs>
<filter id="filter0_d_0_1" x="19.6306" y="256" width="72" height="72" filterUnits="userSpaceOnUse" color-interpolation-filters="sRGB">
<feFlood flood-opacity="0" result="BackgroundImageFix"/>
<feColorMatrix in="SourceAlpha" type="matrix" values="0 0 0 0 0 0 0 0 0 0 0 0 0 0 0 0 0 0 127 0" result="hardAlpha"/>
<feOffset dy="4"/>
<feGaussianBlur stdDeviation="2"/>
<feComposite in2="hardAlpha" operator="out"/>
<feColorMatrix type="matrix" values="0 0 0 0 0 0 0 0 0 0 0 0 0 0 0 0 0 0 0.25 0"/>
<feBlend mode="normal" in2="BackgroundImageFix" result="effect1_dropShadow_0_1"/>
<feBlend mode="normal" in="SourceGraphic" in2="effect1_dropShadow_0_1" result="shape"/>
</filter>
<filter id="filter1_d_0_1" x="239.631" y="502" width="72" height="72" filterUnits="userSpaceOnUse" color-interpolation-filters="sRGB">
<feFlood flood-opacity="0" result="BackgroundImageFix"/>
<feColorMatrix in="SourceAlpha" type="matrix" values="0 0 0 0 0 0 0 0 0 0 0 0 0 0 0 0 0 0 127 0" result="hardAlpha"/>
<feOffset dy="4"/>
<feGaussianBlur stdDeviation="2"/>
<feComposite in2="hardAlpha" operator="out"/>
<feColorMatrix type="matrix" values="0 0 0 0 0 0 0 0 0 0 0 0 0 0 0 0 0 0 0.25 0"/>
<feBlend mode="normal" in2="BackgroundImageFix" result="effect1_dropShadow_0_1"/>
<feBlend mode="normal" in="SourceGraphic" in2="effect1_dropShadow_0_1" result="shape"/>
</filter>
<filter id="filter2_d_0_1" x="541.631" y="89" width="72" height="72" filterUnits="userSpaceOnUse" color-interpolation-filters="sRGB">
<feFlood flood-opacity="0" result="BackgroundImageFix"/>
<feColorMatrix in="SourceAlpha" type="matrix" values="0 0 0 0 0 0 0 0 0 0 0 0 0 0 0 0 0 0 127 0" result="hardAlpha"/>
<feOffset dy="4"/>
<feGaussianBlur stdDeviation="2"/>
<feComposite in2="hardAlpha" operator="out"/>
<feColorMatrix type="matrix" values="0 0 0 0 0 0 0 0 0 0 0 0 0 0 0 0 0 0 0.25 0"/>
<feBlend mode="normal" in2="BackgroundImageFix" result="effect1_dropShadow_0_1"/>
<feBlend mode="normal" in="SourceGraphic" in2="effect1_dropShadow_0_1" result="shape"/>
</filter>
<filter id="filter3_d_0_1" x="487.631" y="166" width="72" height="72" filterUnits="userSpaceOnUse" color-interpolation-filters="sRGB">
<feFlood flood-opacity="0" result="BackgroundImageFix"/>
<feColorMatrix in="SourceAlpha" type="matrix" values="0 0 0 0 0 0 0 0 0 0 0 0 0 0 0 0 0 0 127 0" result="hardAlpha"/>
<feOffset dy="4"/>
<feGaussianBlur stdDeviation="2"/>
<feComposite in2="hardAlpha" operator="out"/>
<feColorMatrix type="matrix" values="0 0 0 0 0 0 0 0 0 0 0 0 0 0 0 0 0 0 0.25 0"/>
<feBlend mode="normal" in2="BackgroundImageFix" result="effect1_dropShadow_0_1"/>
<feBlend mode="normal" in="SourceGraphic" in2="effect1_dropShadow_0_1" result="shape"/>
</filter>
<filter id="filter4_d_0_1" x="134.631" y="20" width="72" height="72" filterUnits="userSpaceOnUse" color-interpolation-filters="sRGB">
<feFlood flood-opacity="0" result="BackgroundImageFix"/>
<feColorMatrix in="SourceAlpha" type="matrix" values="0 0 0 0 0 0 0 0 0 0 0 0 0 0 0 0 0 0 127 0" result="hardAlpha"/>
<feOffset dy="4"/>
<feGaussianBlur stdDeviation="2"/>
<feComposite in2="hardAlpha" operator="out"/>
<feColorMatrix type="matrix" values="0 0 0 0 0 0 0 0 0 0 0 0 0 0 0 0 0 0 0.25 0"/>
<feBlend mode="normal" in2="BackgroundImageFix" result="effect1_dropShadow_0_1"/>
<feBlend mode="normal" in="SourceGraphic" in2="effect1_dropShadow_0_1" result="shape"/>
</filter>
<filter id="filter5_d_0_1" x="1.63061" y="0" width="72" height="72" filterUnits="userSpaceOnUse" color-interpolation-filters="sRGB">
<feFlood flood-opacity="0" result="BackgroundImageFix"/>
<feColorMatrix in="SourceAlpha" type="matrix" values="0 0 0 0 0 0 0 0 0 0 0 0 0 0 0 0 0 0 127 0" result="hardAlpha"/>
<feOffset dy="4"/>
<feGaussianBlur stdDeviation="2"/>
<feComposite in2="hardAlpha" operator="out"/>
<feColorMatrix type="matrix" values="0 0 0 0 0 0 0 0 0 0 0 0 0 0 0 0 0 0 0.25 0"/>
<feBlend mode="normal" in2="BackgroundImageFix" result="effect1_dropShadow_0_1"/>
<feBlend mode="normal" in="SourceGraphic" in2="effect1_dropShadow_0_1" result="shape"/>
</filter>
<filter id="filter6_d_0_1" x="58.6306" y="412" width="72" height="72" filterUnits="userSpaceOnUse" color-interpolation-filters="sRGB">
<feFlood flood-opacity="0" result="BackgroundImageFix"/>
<feColorMatrix in="SourceAlpha" type="matrix" values="0 0 0 0 0 0 0 0 0 0 0 0 0 0 0 0 0 0 127 0" result="hardAlpha"/>
<feOffset dy="4"/>
<feGaussianBlur stdDeviation="2"/>
<feComposite in2="hardAlpha" operator="out"/>
<feColorMatrix type="matrix" values="0 0 0 0 0 0 0 0 0 0 0 0 0 0 0 0 0 0 0.25 0"/>
<feBlend mode="normal" in2="BackgroundImageFix" result="effect1_dropShadow_0_1"/>
<feBlend mode="normal" in="SourceGraphic" in2="effect1_dropShadow_0_1" result="shape"/>
</filter>
<filter id="filter7_d_0_1" x="416.631" y="532" width="72" height="72" filterUnits="userSpaceOnUse" color-interpolation-filters="sRGB">
<feFlood flood-opacity="0" result="BackgroundImageFix"/>
<feColorMatrix in="SourceAlpha" type="matrix" values="0 0 0 0 0 0 0 0 0 0 0 0 0 0 0 0 0 0 127 0" result="hardAlpha"/>
<feOffset dy="4"/>
<feGaussianBlur stdDeviation="2"/>
<feComposite in2="hardAlpha" operator="out"/>
<feColorMatrix type="matrix" values="0 0 0 0 0 0 0 0 0 0 0 0 0 0 0 0 0 0 0.25 0"/>
<feBlend mode="normal" in2="BackgroundImageFix" result="effect1_dropShadow_0_1"/>
<feBlend mode="normal" in="SourceGraphic" in2="effect1_dropShadow_0_1" result="shape"/>
</filter>
<filter id="filter8_d_0_1" x="463.631" y="450" width="72" height="72" filterUnits="userSpaceOnUse" color-interpolation-filters="sRGB">
<feFlood flood-opacity="0" result="BackgroundImageFix"/>
<feColorMatrix in="SourceAlpha" type="matrix" values="0 0 0 0 0 0 0 0 0 0 0 0 0 0 0 0 0 0 127 0" result="hardAlpha"/>
<feOffset dy="4"/>
<feGaussianBlur stdDeviation="2"/>
<feComposite in2="hardAlpha" operator="out"/>
<feColorMatrix type="matrix" values="0 0 0 0 0 0 0 0 0 0 0 0 0 0 0 0 0 0 0.25 0"/>
<feBlend mode="normal" in2="BackgroundImageFix" result="effect1_dropShadow_0_1"/>
<feBlend mode="normal" in="SourceGraphic" in2="effect1_dropShadow_0_1" result="shape"/>
</filter>
<filter id="filter9_d_0_1" x="477.631" y="356" width="72" height="72" filterUnits="userSpaceOnUse" color-interpolation-filters="sRGB">
<feFlood flood-opacity="0" result="BackgroundImageFix"/>
<feColorMatrix in="SourceAlpha" type="matrix" values="0 0 0 0 0 0 0 0 0 0 0 0 0 0 0 0 0 0 127 0" result="hardAlpha"/>
<feOffset dy="4"/>
<feGaussianBlur stdDeviation="2"/>
<feComposite in2="hardAlpha" operator="out"/>
<feColorMatrix type="matrix" values="0 0 0 0 0 0 0 0 0 0 0 0 0 0 0 0 0 0 0.25 0"/>
<feBlend mode="normal" in2="BackgroundImageFix" result="effect1_dropShadow_0_1"/>
<feBlend mode="normal" in="SourceGraphic" in2="effect1_dropShadow_0_1" result="shape"/>
</filter>
<filter id="filter10_d_0_1" x="399.631" y="356" width="72" height="72" filterUnits="userSpaceOnUse" color-interpolation-filters="sRGB">
<feFlood flood-opacity="0" result="BackgroundImageFix"/>
<feColorMatrix in="SourceAlpha" type="matrix" values="0 0 0 0 0 0 0 0 0 0 0 0 0 0 0 0 0 0 127 0" result="hardAlpha"/>
<feOffset dy="4"/>
<feGaussianBlur stdDeviation="2"/>
<feComposite in2="hardAlpha" operator="out"/>
<feColorMatrix type="matrix" values="0 0 0 0 0 0 0 0 0 0 0 0 0 0 0 0 0 0 0.25 0"/>
<feBlend mode="normal" in2="BackgroundImageFix" result="effect1_dropShadow_0_1"/>
<feBlend mode="normal" in="SourceGraphic" in2="effect1_dropShadow_0_1" result="shape"/>
</filter>
<filter id="filter11_d_0_1" x="392.631" y="438" width="72" height="72" filterUnits="userSpaceOnUse" color-interpolation-filters="sRGB">
<feFlood flood-opacity="0" result="BackgroundImageFix"/>
<feColorMatrix in="SourceAlpha" type="matrix" values="0 0 0 0 0 0 0 0 0 0 0 0 0 0 0 0 0 0 127 0" result="hardAlpha"/>
<feOffset dy="4"/>
<feGaussianBlur stdDeviation="2"/>
<feComposite in2="hardAlpha" operator="out"/>
<feColorMatrix type="matrix" values="0 0 0 0 0 0 0 0 0 0 0 0 0 0 0 0 0 0 0.25 0"/>
<feBlend mode="normal" in2="BackgroundImageFix" result="effect1_dropShadow_0_1"/>
<feBlend mode="normal" in="SourceGraphic" in2="effect1_dropShadow_0_1" result="shape"/>
</filter>
<filter id="filter12_d_0_1" x="335.631" y="147" width="72" height="72" filterUnits="userSpaceOnUse" color-interpolation-filters="sRGB">
<feFlood flood-opacity="0" result="BackgroundImageFix"/>
<feColorMatrix in="SourceAlpha" type="matrix" values="0 0 0 0 0 0 0 0 0 0 0 0 0 0 0 0 0 0 127 0" result="hardAlpha"/>
<feOffset dy="4"/>
<feGaussianBlur stdDeviation="2"/>
<feComposite in2="hardAlpha" operator="out"/>
<feColorMatrix type="matrix" values="0 0 0 0 0 0 0 0 0 0 0 0 0 0 0 0 0 0 0.25 0"/>
<feBlend mode="normal" in2="BackgroundImageFix" result="effect1_dropShadow_0_1"/>
<feBlend mode="normal" in="SourceGraphic" in2="effect1_dropShadow_0_1" result="shape"/>
</filter>
<filter id="filter13_d_0_1" x="343.631" y="65" width="72" height="72" filterUnits="userSpaceOnUse" color-interpolation-filters="sRGB">
<feFlood flood-opacity="0" result="BackgroundImageFix"/>
<feColorMatrix in="SourceAlpha" type="matrix" values="0 0 0 0 0 0 0 0 0 0 0 0 0 0 0 0 0 0 127 0" result="hardAlpha"/>
<feOffset dy="4"/>
<feGaussianBlur stdDeviation="2"/>
<feComposite in2="hardAlpha" operator="out"/>
<feColorMatrix type="matrix" values="0 0 0 0 0 0 0 0 0 0 0 0 0 0 0 0 0 0 0.25 0"/>
<feBlend mode="normal" in2="BackgroundImageFix" result="effect1_dropShadow_0_1"/>
<feBlend mode="normal" in="SourceGraphic" in2="effect1_dropShadow_0_1" result="shape"/>
</filter>
<filter id="filter14_d_0_1" x="279.631" y="267" width="72" height="72" filterUnits="userSpaceOnUse" color-interpolation-filters="sRGB">
<feFlood flood-opacity="0" result="BackgroundImageFix"/>
<feColorMatrix in="SourceAlpha" type="matrix" values="0 0 0 0 0 0 0 0 0 0 0 0 0 0 0 0 0 0 127 0" result="hardAlpha"/>
<feOffset dy="4"/>
<feGaussianBlur stdDeviation="2"/>
<feComposite in2="hardAlpha" operator="out"/>
<feColorMatrix type="matrix" values="0 0 0 0 0 0 0 0 0 0 0 0 0 0 0 0 0 0 0.25 0"/>
<feBlend mode="normal" in2="BackgroundImageFix" result="effect1_dropShadow_0_1"/>
<feBlend mode="normal" in="SourceGraphic" in2="effect1_dropShadow_0_1" result="shape"/>
</filter>
<filter id="filter15_d_0_1" x="245.631" y="129" width="72" height="72" filterUnits="userSpaceOnUse" color-interpolation-filters="sRGB">
<feFlood flood-opacity="0" result="BackgroundImageFix"/>
<feColorMatrix in="SourceAlpha" type="matrix" values="0 0 0 0 0 0 0 0 0 0 0 0 0 0 0 0 0 0 127 0" result="hardAlpha"/>
<feOffset dy="4"/>
<feGaussianBlur stdDeviation="2"/>
<feComposite in2="hardAlpha" operator="out"/>
<feColorMatrix type="matrix" values="0 0 0 0 0 0 0 0 0 0 0 0 0 0 0 0 0 0 0.25 0"/>
<feBlend mode="normal" in2="BackgroundImageFix" result="effect1_dropShadow_0_1"/>
<feBlend mode="normal" in="SourceGraphic" in2="effect1_dropShadow_0_1" result="shape"/>
</filter>
<filter id="filter16_d_0_1" x="110.631" y="299" width="72" height="72" filterUnits="userSpaceOnUse" color-interpolation-filters="sRGB">
<feFlood flood-opacity="0" result="BackgroundImageFix"/>
<feColorMatrix in="SourceAlpha" type="matrix" values="0 0 0 0 0 0 0 0 0 0 0 0 0 0 0 0 0 0 127 0" result="hardAlpha"/>
<feOffset dy="4"/>
<feGaussianBlur stdDeviation="2"/>
<feComposite in2="hardAlpha" operator="out"/>
<feColorMatrix type="matrix" values="0 0 0 0 0 0 0 0 0 0 0 0 0 0 0 0 0 0 0.25 0"/>
<feBlend mode="normal" in2="BackgroundImageFix" result="effect1_dropShadow_0_1"/>
<feBlend mode="normal" in="SourceGraphic" in2="effect1_dropShadow_0_1" result="shape"/>
</filter>
<filter id="filter17_d_0_1" x="110.631" y="192" width="72" height="72" filterUnits="userSpaceOnUse" color-interpolation-filters="sRGB">
<feFlood flood-opacity="0" result="BackgroundImageFix"/>
<feColorMatrix in="SourceAlpha" type="matrix" values="0 0 0 0 0 0 0 0 0 0 0 0 0 0 0 0 0 0 127 0" result="hardAlpha"/>
<feOffset dy="4"/>
<feGaussianBlur stdDeviation="2"/>
<feComposite in2="hardAlpha" operator="out"/>
<feColorMatrix type="matrix" values="0 0 0 0 0 0 0 0 0 0 0 0 0 0 0 0 0 0 0.25 0"/>
<feBlend mode="normal" in2="BackgroundImageFix" result="effect1_dropShadow_0_1"/>
<feBlend mode="normal" in="SourceGraphic" in2="effect1_dropShadow_0_1" result="shape"/>
</filter>
</defs>
</svg>
