<?xml version="1.0" encoding="utf-8" ?>
<svg width="600" height="300" class="bg-white rounded" xmlns="http://www.w3.org/2000/svg" xmlns:ev="http://www.w3.org/2001/xml-events" xmlns:xlink="http://www.w3.org/1999/xlink">
    <defs><linearGradient id="metallicGradient" x1="0%" y1="0%" x2="100%" y2="0%"><stop offset="0%" style="stop-color: rgb(156, 163, 175); stop-opacity: 0.7;"></stop><stop offset="30%" style="stop-color: rgb(209, 213, 219); stop-opacity: 0.9;"></stop><stop offset="50%" style="stop-color: rgb(243, 244, 246); stop-opacity: 1;"></stop><stop offset="70%" style="stop-color: rgb(209, 213, 219); stop-opacity: 0.9;"></stop><stop offset="100%" style="stop-color: rgb(156, 163, 175); stop-opacity: 0.7;"></stop></linearGradient><linearGradient id="heatGradient" x1="0%" y1="0%" x2="0%" y2="100%"><stop offset="0%" style="stop-color: rgb(255, 255, 255); stop-opacity: 0;"></stop><stop offset="60%" style="stop-color: rgb(255, 0, 0); stop-opacity: 0;"></stop><stop offset="85%" style="stop-color: rgb(255, 68, 68); stop-opacity: 0.5;"></stop><stop offset="100%" style="stop-color: rgb(255, 0, 0); stop-opacity: 0.8;"></stop></linearGradient></defs><g><path d="
      M 50,80
      Q 300,80 550,160
      L 536.1081457872,238.7846202408
      Q 300,160 50,160
      Z
    " fill="url(#metallicGradient)" stroke="#6b7280" stroke-width="2"></path><path d="
              M 50,160
              Q 300,160 535,240
              L 537.08377813192,228
              Q 300,148 50,148
              Z
            " fill="#ff0000" opacity="0.6"></path><path d="
              M 50,156
              Q 300,156 535.69459271064,236
              L 537.77837084256,224
              Q 300,144 50,144
              Z
            " fill="#ff0000" opacity="0.54"></path><path d="
              M 50,152
              Q 300,152 536.38918542128,232
              L 538.4729635532,220
              Q 300,140 50,140
              Z
            " fill="#ff0000" opacity="0.48"></path><path d="
              M 50,148
              Q 300,148 537.08377813192,228
              L 539.16755626384,216
              Q 300,136 50,136
              Z
            " fill="#ff0000" opacity="0.42"></path><path d="
              M 50,144
              Q 300,144 537.77837084256,224
              L 539.86214897448,212
              Q 300,132 50,132
              Z
            " fill="#ff0000" opacity="0.36"></path><path d="
              M 50,140
              Q 300,140 538.4729635532,220
              L 540.55674168512,208
              Q 300,128 50,128
              Z
            " fill="#ff0000" opacity="0.3"></path><path d="
              M 50,136
              Q 300,136 539.16755626384,216
              L 541.25133439576,204
              Q 300,124 50,124
              Z
            " fill="#ff0000" opacity="0.24"></path><path d="
              M 50,132
              Q 300,132 539.86214897448,212
              L 541.9459271064,200
              Q 300,120 50,120
              Z
            " fill="#ff0000" opacity="0.18"></path><path d="
              M 50,128
              Q 300,128 540.55674168512,208
              L 542.64051981704,196
              Q 300,116 50,116
              Z
            " fill="#ff0000" opacity="0.12"></path><path d="
              M 50,124
              Q 300,124 541.25133439576,204
              L 543.33511252768,192
              Q 300,112 50,112
              Z
            " fill="#ff0000" opacity="0.05999999999999994"></path></g><g opacity="0.8"><line x1="50" y1="80" x2="50" y2="160" stroke="#3b82f6" stroke-width="2"></line><line x1="100" y1="80.80000000000001" x2="98.61081457872" y2="160.80000000000004" stroke="#3b82f6" stroke-width="2"></line><line x1="150" y1="83.20000000000002" x2="147.22162915744" y2="163.20000000000002" stroke="#3b82f6" stroke-width="2"></line><line x1="200" y1="87.19999999999999" x2="195.83244373616" y2="167.2" stroke="#3b82f6" stroke-width="2"></line><line x1="250" y1="92.8" x2="244.44325831488" y2="172.79999999999998" stroke="#3b82f6" stroke-width="2"></line><line x1="300" y1="100" x2="293.0540728936" y2="180" stroke="#3b82f6" stroke-width="2"></line><line x1="350" y1="108.8" x2="341.66488747232" y2="188.8" stroke="#3b82f6" stroke-width="2"></line><line x1="400" y1="119.19999999999999" x2="390.27570205104" y2="199.2" stroke="#3b82f6" stroke-width="2"></line><line x1="450" y1="131.20000000000002" x2="438.88651662976" y2="211.20000000000002" stroke="#3b82f6" stroke-width="2"></line><line x1="500" y1="144.8" x2="487.49733120848" y2="224.8" stroke="#3b82f6" stroke-width="2"></line><line x1="550" y1="160" x2="536.1081457872" y2="240" stroke="#3b82f6" stroke-width="2"></line><path d="M 50,80 L 75,80.2 L 100,80.80000000000001 L 125,81.79999999999998 L 150,83.20000000000002 L 175,85 L 200,87.19999999999999 L 225,89.8 L 250,92.8 L 275,96.20000000000002 L 300,100 L 325,104.2 L 350,108.8 L 375,113.80000000000001 L 400,119.19999999999999 L 425,125 L 450,131.20000000000002 L 475,137.79999999999998 L 500,144.8 L 525,152.20000000000002 L 550,160" fill="none" stroke="#3b82f6" stroke-width="2"></path><path d="M 50,106.66666666666666 L 74.76846909645333,106.86666666666665 L 99.53693819290666,107.46666666666665 L 124.30540728936,108.46666666666665 L 149.07387638581332,109.86666666666669 L 173.84234548226667,111.66666666666667 L 198.61081457872,113.86666666666666 L 223.37928367517333,116.46666666666665 L 248.14775277162667,119.46666666666667 L 272.91622186808,122.86666666666666 L 297.68469096453333,126.66666666666666 L 322.45316006098665,130.86666666666667 L 347.22162915744,135.46666666666664 L 371.99009825389334,140.46666666666667 L 396.75856735034665,145.86666666666665 L 421.5270364468,151.66666666666666 L 446.29550554325334,157.86666666666667 L 471.06397463970666,164.46666666666664 L 495.83244373616,171.46666666666664 L 520.6009128326133,178.86666666666665 L 545.3693819290667,186.66666666666666" fill="none" stroke="#3b82f6" stroke-width="2"></path><path d="M 50,133.33333333333331 L 74.53693819290666,133.5333333333333 L 99.07387638581334,134.13333333333333 L 123.61081457872,135.13333333333333 L 148.14775277162667,136.53333333333333 L 172.68469096453333,138.33333333333331 L 197.22162915744,140.5333333333333 L 221.75856735034668,143.1333333333333 L 246.29550554325334,146.13333333333333 L 270.83244373616,149.53333333333333 L 295.36938192906666,153.33333333333331 L 319.90632012197335,157.5333333333333 L 344.44325831488,162.13333333333333 L 368.9801965077867,167.13333333333333 L 393.51713470069336,172.5333333333333 L 418.0540728936,178.33333333333331 L 442.5910110865067,184.53333333333336 L 467.1279492794133,191.1333333333333 L 491.66488747232,198.1333333333333 L 516.2018256652267,205.5333333333333 L 540.7387638581333,213.33333333333331" fill="none" stroke="#3b82f6" stroke-width="2"></path><path d="M 50,160 L 74.30540728936,160.2 L 98.61081457872,160.80000000000004 L 122.91622186808,161.79999999999998 L 147.22162915744,163.20000000000002 L 171.5270364468,165 L 195.83244373616,167.2 L 220.13785102552,169.8 L 244.44325831488,172.79999999999998 L 268.74866560424,176.20000000000002 L 293.0540728936,180 L 317.35948018296,184.2 L 341.66488747232,188.8 L 365.97029476168,193.8 L 390.27570205104,199.2 L 414.5811093404,205 L 438.88651662976,211.20000000000002 L 463.19192391912,217.79999999999998 L 487.49733120848,224.8 L 511.80273849784,232.20000000000002 L 536.1081457872,240" fill="none" stroke="#3b82f6" stroke-width="2"></path></g><g opacity="1"><line x1="40" y1="40" x2="40" y2="260" stroke="#22c55e" stroke-width="1.5"></line><line x1="92" y1="40" x2="92" y2="260" stroke="#22c55e" stroke-width="1.5"></line><line x1="144" y1="40" x2="144" y2="260" stroke="#22c55e" stroke-width="1.5"></line><line x1="196" y1="40" x2="196" y2="260" stroke="#22c55e" stroke-width="1.5"></line><line x1="248" y1="40" x2="248" y2="260" stroke="#22c55e" stroke-width="1.5"></line><line x1="300" y1="40" x2="300" y2="260" stroke="#22c55e" stroke-width="1.5"></line><line x1="352" y1="40" x2="352" y2="260" stroke="#22c55e" stroke-width="1.5"></line><line x1="404" y1="40" x2="404" y2="260" stroke="#22c55e" stroke-width="1.5"></line><line x1="456" y1="40" x2="456" y2="260" stroke="#22c55e" stroke-width="1.5"></line><line x1="508" y1="40" x2="508" y2="260" stroke="#22c55e" stroke-width="1.5"></line><line x1="560" y1="40" x2="560" y2="260" stroke="#22c55e" stroke-width="1.5"></line><line x1="40" y1="40" x2="560" y2="40" stroke="#22c55e" stroke-width="1.5"></line><line x1="40" y1="67.5" x2="560" y2="67.5" stroke="#22c55e" stroke-width="1.5"></line><line x1="40" y1="95" x2="560" y2="95" stroke="#22c55e" stroke-width="1.5"></line><line x1="40" y1="122.5" x2="560" y2="122.5" stroke="#22c55e" stroke-width="1.5"></line><line x1="40" y1="150" x2="560" y2="150" stroke="#22c55e" stroke-width="1.5"></line><line x1="40" y1="177.5" x2="560" y2="177.5" stroke="#22c55e" stroke-width="1.5"></line><line x1="40" y1="205" x2="560" y2="205" stroke="#22c55e" stroke-width="1.5"></line><line x1="40" y1="232.5" x2="560" y2="232.5" stroke="#22c55e" stroke-width="1.5"></line><line x1="40" y1="260" x2="560" y2="260" stroke="#22c55e" stroke-width="1.5"></line></g></svg>
